<svg width="1531" height="141" viewBox="0 0 1531 141" fill="none" xmlns="http://www.w3.org/2000/svg">
<path d="M0.35289 137L58.4929 3.99999H102.573L160.713 137H114.353L71.4129 25.28H88.8929L45.9529 137H0.35289ZM34.9329 113.82L46.3329 81.52H107.513L118.913 113.82H34.9329ZM193.534 137V78.67L203.794 105.46L143.374 3.99999H190.684L231.534 73.35H203.984L245.214 3.99999H288.534L228.494 105.46L238.374 78.67V137H193.534ZM356.021 140.04C335.628 140.04 319.731 134.53 308.331 123.51C296.931 112.49 291.231 97.0367 291.231 77.15V3.99999H336.071V75.82C336.071 85.9533 337.908 93.1733 341.581 97.48C345.254 101.66 350.194 103.75 356.401 103.75C362.734 103.75 367.674 101.66 371.221 97.48C374.894 93.1733 376.731 85.9533 376.731 75.82V3.99999H420.811V77.15C420.811 97.0367 415.111 112.49 403.711 123.51C392.311 134.53 376.414 140.04 356.021 140.04ZM490.955 140.04C479.808 140.04 469.042 138.773 458.655 136.24C448.268 133.707 439.718 130.413 433.005 126.36L447.445 93.68C453.778 97.3533 460.808 100.33 468.535 102.61C476.388 104.763 483.988 105.84 491.335 105.84C495.642 105.84 498.998 105.587 501.405 105.08C503.938 104.447 505.775 103.623 506.915 102.61C508.055 101.47 508.625 100.14 508.625 98.62C508.625 96.2133 507.295 94.3133 504.635 92.92C501.975 91.5267 498.428 90.3867 493.995 89.5C489.688 88.4867 484.938 87.4733 479.745 86.46C474.552 85.32 469.295 83.8633 463.975 82.09C458.782 80.3167 453.968 77.9733 449.535 75.06C445.228 72.1467 441.745 68.3467 439.085 63.66C436.425 58.8467 435.095 52.8933 435.095 45.8C435.095 37.5667 437.375 30.0933 441.935 23.38C446.622 16.54 453.525 11.0933 462.645 7.04C471.892 2.98666 483.355 0.959996 497.035 0.959996C506.028 0.959996 514.895 1.91 523.635 3.80999C532.375 5.70999 540.228 8.62333 547.195 12.55L533.705 45.04C527.118 41.7467 520.722 39.2767 514.515 37.63C508.435 35.9833 502.482 35.16 496.655 35.16C492.348 35.16 488.928 35.54 486.395 36.3C483.862 37.06 482.025 38.0733 480.885 39.34C479.872 40.6067 479.365 42 479.365 43.52C479.365 45.8 480.695 47.6367 483.355 49.03C486.015 50.2967 489.498 51.3733 493.805 52.26C498.238 53.1467 503.052 54.0967 508.245 55.11C513.565 56.1233 518.822 57.5167 524.015 59.29C529.208 61.0633 533.958 63.4067 538.265 66.32C542.698 69.2333 546.245 73.0333 548.905 77.72C551.565 82.4067 552.895 88.2333 552.895 95.2C552.895 103.307 550.552 110.78 545.865 117.62C541.305 124.333 534.465 129.78 525.345 133.96C516.225 138.013 504.762 140.04 490.955 140.04ZM652.498 3.99999H697.338V137H652.498V3.99999ZM611.078 137H566.238V3.99999H611.078V137ZM655.538 87.98H608.038V51.12H655.538V87.98ZM815.996 108.5L813.526 59.29L863.686 3.99999H912.516L856.276 65.94L831.386 91.4L815.996 108.5ZM775.906 137V3.99999H819.986V137H775.906ZM863.306 137L824.166 85.32L853.236 54.54L915.176 137H863.306ZM982.984 140.04C962.591 140.04 946.694 134.53 935.294 123.51C923.894 112.49 918.194 97.0367 918.194 77.15V3.99999H963.034V75.82C963.034 85.9533 964.871 93.1733 968.544 97.48C972.217 101.66 977.157 103.75 983.364 103.75C989.697 103.75 994.637 101.66 998.184 97.48C1001.86 93.1733 1003.69 85.9533 1003.69 75.82V3.99999H1047.77V77.15C1047.77 97.0367 1042.07 112.49 1030.67 123.51C1019.27 134.53 1003.38 140.04 982.984 140.04ZM1068.33 137V3.99999H1105.19L1158.39 90.83H1139.01L1190.69 3.99999H1227.55L1227.93 137H1187.08L1186.7 65.56H1193.16L1157.82 125.03H1138.06L1101.2 65.56H1109.18V137H1068.33ZM1235.17 137L1293.31 3.99999H1337.39L1395.53 137H1349.17L1306.23 25.28H1323.71L1280.77 137H1235.17ZM1269.75 113.82L1281.15 81.52H1342.33L1353.73 113.82H1269.75ZM1402.68 137V3.99999H1466.71C1479.13 3.99999 1489.83 6.02666 1498.82 10.08C1507.94 14.1333 1514.97 19.96 1519.91 27.56C1524.85 35.0333 1527.32 43.9 1527.32 54.16C1527.32 64.42 1524.85 73.2867 1519.91 80.76C1514.97 88.1067 1507.94 93.7433 1498.82 97.67C1489.83 101.597 1479.13 103.56 1466.71 103.56H1427.57L1447.52 85.13V137H1402.68ZM1482.29 137L1449.61 88.55H1497.11L1530.17 137H1482.29ZM1447.52 90.07L1427.57 69.74H1463.86C1470.07 69.74 1474.63 68.3467 1477.54 65.56C1480.58 62.7733 1482.1 58.9733 1482.1 54.16C1482.1 49.3467 1480.58 45.5467 1477.54 42.76C1474.63 39.9733 1470.07 38.58 1463.86 38.58H1427.57L1447.52 18.25V90.07Z" fill="#345B48"/>
</svg>
