<svg width="800" height="732" viewBox="0 0 800 732" fill="none" xmlns="http://www.w3.org/2000/svg">
<g clipPath="url(#clip0_20_105)">
<g clipPath="url(#clip1_20_105)">
<path d="M73.92 323.5L71.45 274.29L121.61 219H170.44L114.2 280.94L89.31 306.4L73.92 323.5ZM33.83 352V219H77.91V352H33.83ZM121.23 352L82.09 300.32L111.16 269.54L173.1 352H121.23ZM240.908 355.04C220.514 355.04 204.618 349.53 193.218 338.51C181.818 327.49 176.118 312.037 176.118 292.15V219H220.958V290.82C220.958 300.953 222.794 308.173 226.468 312.48C230.141 316.66 235.081 318.75 241.288 318.75C247.621 318.75 252.561 316.66 256.108 312.48C259.781 308.173 261.618 300.953 261.618 290.82V219H305.698V292.15C305.698 312.037 299.998 327.49 288.598 338.51C277.198 349.53 261.301 355.04 240.908 355.04ZM326.252 352V219H363.112L416.312 305.83H396.932L448.612 219H485.472L485.852 352H445.002L444.622 280.56H451.082L415.742 340.03H395.982L359.122 280.56H367.102V352H326.252ZM493.091 352L551.231 219H595.311L653.451 352H607.091L564.151 240.28H581.631L538.691 352H493.091ZM527.671 328.82L539.071 296.52H600.251L611.651 328.82H527.671ZM660.607 352V219H724.637C737.051 219 747.754 221.027 756.747 225.08C765.867 229.133 772.897 234.96 777.837 242.56C782.777 250.033 785.247 258.9 785.247 269.16C785.247 279.42 782.777 288.287 777.837 295.76C772.897 303.107 765.867 308.743 756.747 312.67C747.754 316.597 737.051 318.56 724.637 318.56H685.497L705.447 300.13V352H660.607ZM740.217 352L707.537 303.55H755.037L788.097 352H740.217ZM705.447 305.07L685.497 284.74H721.787C727.994 284.74 732.554 283.347 735.467 280.56C738.507 277.773 740.027 273.973 740.027 269.16C740.027 264.347 738.507 260.547 735.467 257.76C732.554 254.973 727.994 253.58 721.787 253.58H685.497L705.447 233.25V305.07Z" fill="#DADFE5"/>
<path d="M42.39 180L100.53 47H144.61L202.75 180H156.39L113.45 68.28H130.93L87.99 180H42.39ZM76.97 156.82L88.37 124.52H149.55L160.95 156.82H76.97ZM235.571 180V121.67L245.831 148.46L185.411 47H232.721L273.571 116.35H246.021L287.251 47H330.571L270.531 148.46L280.411 121.67V180H235.571ZM398.058 183.04C377.665 183.04 361.768 177.53 350.368 166.51C338.968 155.49 333.268 140.037 333.268 120.15V47H378.108V118.82C378.108 128.953 379.945 136.173 383.618 140.48C387.291 144.66 392.231 146.75 398.438 146.75C404.771 146.75 409.711 144.66 413.258 140.48C416.931 136.173 418.768 128.953 418.768 118.82V47H462.848V120.15C462.848 140.037 457.148 155.49 445.748 166.51C434.348 177.53 418.451 183.04 398.058 183.04ZM532.992 183.04C521.846 183.04 511.079 181.773 500.692 179.24C490.306 176.707 481.756 173.413 475.042 169.36L489.482 136.68C495.816 140.353 502.846 143.33 510.572 145.61C518.426 147.763 526.026 148.84 533.372 148.84C537.679 148.84 541.036 148.587 543.442 148.08C545.976 147.447 547.812 146.623 548.952 145.61C550.092 144.47 550.662 143.14 550.662 141.62C550.662 139.213 549.332 137.313 546.672 135.92C544.012 134.527 540.466 133.387 536.032 132.5C531.726 131.487 526.976 130.473 521.782 129.46C516.589 128.32 511.332 126.863 506.012 125.09C500.819 123.317 496.006 120.973 491.572 118.06C487.266 115.147 483.782 111.347 481.122 106.66C478.462 101.847 477.132 95.8933 477.132 88.8C477.132 80.5667 479.412 73.0933 483.972 66.38C488.659 59.54 495.562 54.0933 504.682 50.04C513.929 45.9867 525.392 43.96 539.072 43.96C548.066 43.96 556.932 44.91 565.672 46.81C574.412 48.71 582.266 51.6233 589.232 55.55L575.742 88.04C569.156 84.7467 562.759 82.2767 556.552 80.63C550.472 78.9833 544.519 78.16 538.692 78.16C534.386 78.16 530.966 78.54 528.432 79.3C525.899 80.06 524.062 81.0733 522.922 82.34C521.909 83.6067 521.402 85 521.402 86.52C521.402 88.8 522.732 90.6367 525.392 92.03C528.052 93.2967 531.536 94.3733 535.842 95.26C540.276 96.1467 545.089 97.0967 550.282 98.11C555.602 99.1233 560.859 100.517 566.052 102.29C571.246 104.063 575.996 106.407 580.302 109.32C584.736 112.233 588.282 116.033 590.942 120.72C593.602 125.407 594.932 131.233 594.932 138.2C594.932 146.307 592.589 153.78 587.902 160.62C583.342 167.333 576.502 172.78 567.382 176.96C558.262 181.013 546.799 183.04 532.992 183.04ZM694.535 47H739.375V180H694.535V47ZM653.115 180H608.275V47H653.115V180ZM697.575 130.98H650.075V94.12H697.575V130.98Z" fill="#DADFE5"/>
</g>
<path d="M52.5752 387.107C56.4346 387.879 58.8892 392.68 61.4487 395.298C66.4262 400.388 71.5574 404.569 77.3186 408.779C91.9896 419.5 110.019 427.828 122.966 440.775C124.291 442.099 124.353 445.353 126.294 445.467C128.56 445.601 129.682 445.552 130.901 447.686C132.827 451.057 138.926 453.188 141.652 456.303C142.196 456.925 148.988 465.512 150.525 463.556C155.777 456.871 158.084 444.504 160.764 436.594C162.851 430.431 165.989 424.533 167.419 418.164C170.818 403.023 174.321 386.818 178.852 372.09C179.535 369.872 180.047 363.503 180.047 364.07" stroke="#E6F75F" stroke-width="16" stroke-linecap="round"/>
<path d="M150.866 388.643C163.533 399.199 182.301 410.365 198.903 411.594C202.901 411.891 206.188 414.751 209.995 414.751C213.486 414.751 219.29 415.949 222.367 414.41C224.827 413.18 222.881 398.241 222.708 396.663C219.762 369.82 207.244 346.838 200.78 320.982C199.464 315.718 198.774 311.075 198.476 305.71C198.294 302.426 195.049 303.996 198.476 305.71" stroke="#E6F75F" stroke-width="16" stroke-linecap="round"/>
<path d="M250.693 359.463C255.321 357.083 276.428 349.295 276.802 342.569C277.218 335.08 268.716 337.961 262.98 337.961C252.773 337.961 228.803 347.791 232.946 360.998C238.542 378.834 244.237 398.377 266.051 397.858C286.405 397.373 295.182 388.746 305.982 373.626C309.108 369.25 312.125 366.573 312.125 360.998" stroke="#E6F75F" stroke-width="16" stroke-linecap="round"/>
<path d="M299.839 282.673C314.204 291.161 323.015 305.92 330.726 320.214C335.193 328.496 341.151 337.62 344.377 346.494C348.708 358.404 359.161 370.216 365.879 380.964" stroke="#E6F75F" stroke-width="16" stroke-linecap="round"/>
<path d="M344.377 341.033C347.326 323.343 376.178 328.747 387.294 328.747C395.062 328.747 413.086 329.838 413.488 340.692C413.766 348.184 415.058 358.439 413.147 365.606C411.305 372.514 405.359 376.867 401.116 381.817C394.053 390.058 370.268 385.938 362.807 380.964" stroke="#E6F75F" stroke-width="16" stroke-linecap="round"/>
<path d="M49.5035 562.188C49.5035 581.869 49.5035 601.55 49.5035 621.231C49.5035 630.422 46.3852 640.026 48.3089 649.217C50.8184 661.206 54.1109 674.272 54.1109 686.588" stroke="#E6F75F" stroke-width="16" stroke-linecap="round"/>
<path d="M32.6096 565.26C42.2638 562.685 51.1001 555.096 59.9127 550.584C73.3875 543.687 87.9595 540.228 102.915 538.298C114.432 536.812 121.617 547.539 127.829 555.704C142.14 574.513 132.243 608.965 120.918 626.692C114.098 637.367 106.142 645.966 98.649 655.957C94.9061 660.948 90.6506 669.027 85.5094 672.766C84.3044 673.642 69.4688 688.554 69.4688 685.052" stroke="#E6F75F" stroke-width="16" stroke-linecap="round"/>
<path d="M176.975 560.652C186.335 561.503 194.356 567.718 204.619 564.919C210.518 563.31 213.734 553.008 212.213 547.683C210.311 541.026 187.261 539.845 182.265 541.028C172.213 543.409 164.266 558.939 159.569 566.625C155.376 573.486 167.017 588.716 171.514 594.44C179.077 604.065 184.189 605.45 197.282 605.191C212.071 604.898 241.873 599.313 249.158 582.922C251.517 577.612 249.769 577.234 247.622 572.939" stroke="#E6F75F" stroke-width="16" stroke-linecap="round"/>
<path d="M235.335 519.186C242.956 520.571 255.084 528.613 259.908 534.885C262.708 538.525 266.607 538.869 269.976 541.626C272.419 543.624 277.709 546.549 278.423 549.049C280.964 557.943 281.409 544.363 281.409 542.223C281.409 526.131 280.355 509.642 281.751 493.589C282.573 484.129 282.049 473.189 286.785 464.665C287.715 462.991 290.148 458.268 290.539 456.901C291.491 453.569 296.356 453.255 295.232 457.754" stroke="#E6F75F" stroke-width="16" stroke-linecap="round"/>
<path d="M332.091 494.613C335.715 491.351 347.612 483.283 345.828 477.037C344.697 473.079 322.636 477.2 319.89 478.402C315.368 480.38 309.402 479.977 309.054 486.934C308.631 495.39 306.846 508.526 309.395 516.456C315.404 535.148 335.454 534.544 352.056 534.544C356.74 534.544 367.039 526.793 367.414 521.916C367.722 517.913 368.95 505.957 368.95 509.971" stroke="#E6F75F" stroke-width="16" stroke-linecap="round"/>
<path d="M362.807 423.966C366.171 432.818 369.111 454.562 377.312 460.484C383.086 464.654 386.285 476.223 387.977 483.18C391.784 498.83 391.987 515.783 391.987 531.814C391.987 547.133 391.103 562.421 384.308 576.01" stroke="#E6F75F" stroke-width="16" stroke-linecap="round"/>
<path d="M428.846 470.04C428.846 477.924 425.803 495.495 437.378 497.599C445.677 499.108 454.907 499.22 463.402 499.22C477.196 499.22 479.248 481.009 477.139 471.064C474.187 457.15 463.434 449.093 452.651 441.628C446.664 437.483 438.94 434.422 431.577 434.717C422.491 435.08 422.027 442.039 419.29 448.539C415.979 456.404 416.85 464.924 414.683 473.112C412.599 480.982 412.398 487.578 408.881 494.613" stroke="#E6F75F" stroke-width="16" stroke-linecap="round"/>
<path d="M493.35 419.359C500.564 439.689 510.087 457.11 514.168 478.658C518.098 499.405 520.499 520.433 527.82 540.346C531.915 551.483 534.123 561.996 535.499 573.792C536.191 579.72 537.045 583.689 530.209 583.689C526.602 583.689 526.371 584.97 522.53 583.689" stroke="#E6F75F" stroke-width="16" stroke-linecap="round"/>
<path d="M505.636 422.43C516.395 417.051 531.528 408.514 544.117 412.448C547.759 413.586 555.896 414.57 557.683 418.591C560.859 425.738 559.389 439.044 559.389 446.662C559.389 458.36 559.957 467.724 551.028 476.183C546.013 480.934 539.041 484.054 533.281 486.934" stroke="#E6F75F" stroke-width="16" stroke-linecap="round"/>
<path d="M593.177 399.393C599.146 399.393 616.214 396.307 616.214 387.79C616.214 385.05 617.757 377.892 613.825 377.892C607.027 377.892 601.367 377.656 595.395 381.305C594.592 381.796 593.355 387.583 592.836 388.984C590.932 394.125 588.307 399.425 587.119 404.769C586.045 409.602 585.439 420.904 587.375 425.502C594.125 441.534 607.185 442.98 623.552 442.396C638.647 441.857 642.323 413.434 642.323 402.465" stroke="#E6F75F" stroke-width="16" stroke-linecap="round"/>
<path d="M659.216 356.391C674.799 357.43 703.79 371.116 708.191 387.619C709.795 393.634 703.562 403.041 697.441 403.915C690.787 404.866 680.915 404.506 679.267 397.09C677.271 388.109 677.822 373.167 679.352 363.985C681.042 353.849 687.756 342.269 692.407 333.269C699.681 319.189 707.817 307.98 720.648 298.713C721.575 298.044 744.833 283.747 745.221 290.352C745.621 297.154 743.353 304.155 740.614 310.317C738.78 314.442 734.471 321.29 734.471 325.675" stroke="#E6F75F" stroke-width="16" stroke-linecap="round"/>
<path d="M133.973 675.837C133.973 670.225 135.61 667.417 136.959 662.698C138.347 657.839 140.788 659.165 142.846 655.872C146.905 649.378 156.607 660.364 161.958 656.725C167.575 652.906 169.907 629.908 172.368 629.763C174.231 629.654 182.507 628.777 183.033 630.617C183.75 633.126 188.099 635.007 190.797 635.907" stroke="#E6F75F" stroke-width="16" stroke-linecap="round"/>
<path d="M286.017 611.334C286.884 603.528 297.354 595.888 298.303 588.297C299.458 579.056 328.294 602.258 330.384 599.645C332.067 597.542 330.484 589.322 330.555 586.761C330.668 582.711 332.638 579.089 333.712 575.328C335.065 570.594 350.646 568.331 355.128 568.331" stroke="#E6F75F" stroke-width="16" stroke-linecap="round"/>
<path d="M433.454 571.403C435.364 567.104 437.463 553.348 444.204 552.973C449.369 552.686 464.724 556.824 465.876 553.656C469.466 543.783 475.45 532.875 481.917 524.561C486.16 519.106 494.939 520.722 501.029 520.722" stroke="#E6F75F" stroke-width="16" stroke-linecap="round"/>
<path d="M579.355 505.364C579.355 489.964 585.36 484.52 600.515 487.275C607.829 488.605 614.648 490.727 619.2 483.692C622.183 479.081 626.965 472.748 626.965 466.969" stroke="#E6F75F" stroke-width="16" stroke-linecap="round"/>
<path d="M668.431 442.396C668.431 432.672 689.724 438.96 694.198 441.713C701.098 445.959 720.016 434.529 724.317 428.574C727.791 423.763 731.971 420.05 735.665 415.946C737.355 414.068 737.542 404.831 737.542 402.38C737.542 396.938 735.795 392.042 736.006 386.766C736.274 380.087 746.85 377.078 751.364 374.821" stroke="#E6F75F" stroke-width="16" stroke-linecap="round"/>
<path d="M393.523 626.692C402.39 613.391 419.522 599.17 434.051 592.222C440.064 589.346 443.857 589.675 450.348 591.368C465.074 595.21 480.228 603.246 493.094 611.163C506.792 619.593 518.316 631.566 531.916 639.661C539.986 644.464 554.554 651.029 563.997 651.265C574.345 651.523 585.117 635.952 590.873 629.081C600.124 618.039 606.07 603.914 616.555 593.928C622.424 588.339 629.496 588.276 637.033 589.321C646.966 590.697 657.791 591.168 666.895 595.635C673.446 598.848 681.787 604.978 689.335 600.839C700.168 594.898 704.151 579.524 708.703 568.843C712.144 560.771 716.516 551.001 717.492 542.223C718.183 536.001 721.564 537.839 723.635 533.008C726.354 526.664 730.395 520.994 737.628 519.186C743.319 517.763 748.793 517.063 754.436 515.773C757.069 515.171 762.567 515.21 763.651 513.043" stroke="#E6F75F" stroke-width="16" stroke-linecap="round"/>
<path d="M427.311 672.766C430.956 671.551 435.191 661.283 437.379 658.09C440.322 653.795 443.609 646.792 447.617 643.586C452.445 639.724 458.58 630.827 464.938 629.849C482.29 627.179 499.17 618.884 515.704 627.545C523.031 631.383 528.61 638.993 534.049 645.036C538.779 650.292 544.917 654.212 550.175 658.944C553.446 661.888 561.78 666.623 566.3 666.623C573.877 666.623 577.936 666.496 584.303 662.015C594.69 654.706 597.994 644.423 603.16 633.518C607.772 623.781 612.247 611.582 615.361 601.351C618.876 589.8 626.234 581.318 633.62 572.086C646.747 555.677 669.338 560.383 687.373 566.796C700.632 571.51 719.094 579.706 733.276 574.816C742.079 571.781 747.434 564.754 753.753 558.434C756.994 555.193 756.84 548.7 760.579 546.83" stroke="#E6F75F" stroke-width="16" stroke-linecap="round"/>
<path d="M456.491 683.516C465.605 681.031 471.784 667.567 479.186 662.015C484.536 658.003 489.674 653.431 495.227 649.729C502.337 644.989 510.067 642.05 518.605 642.05C533.371 642.05 541.689 650.268 553.246 657.067C564.747 663.832 583.043 673.67 596.931 671.145C608.849 668.978 619.04 651.755 623.893 642.05C627.545 634.746 624.956 625.07 629.354 618.16C640.879 600.048 654.546 585.963 677.646 592.563C698.881 598.63 729.107 604.362 737.542 576.949C742.491 560.865 743.882 541.169 740.273 524.476C739.237 519.688 738.895 515.247 739.078 510.312C739.211 506.729 742.15 503.606 742.15 499.988C742.15 493.855 751.869 494.613 755.972 494.613" stroke="#E6F75F" stroke-width="16" stroke-linecap="round"/>
</g>
<defs>
<clipPath id="clip0_20_105">
<rect width="800" height="732" fill="white"/>
</clipPath>
<clipPath id="clip1_20_105">
<rect width="800" height="359" fill="white" transform="translate(0 23)"/>
</clipPath>
</defs>
</svg>
