<svg xmlns="http://www.w3.org/2000/svg" width="152" height="152" fill="none" viewBox="0 0 152 152">
  <g clipPath="url(#a)">
    <path stroke="#E6F75F" stroke-width="14" d="M142.634 58.74c9.791 36.541-11.895 74.103-48.437 83.894-36.542 9.792-74.103-11.894-83.895-48.437C.511 57.655 22.196 20.094 58.739 10.302 95.28.511 132.842 22.197 142.634 58.74Z"/>
    <path stroke="#E6F75F" stroke-linecap="round" stroke-width="8" d="M118.828 61.202c-4.996 4.781-12.2 6.873-18.643 8.963-.105.034-3.051.893-1.392.814 6.253-.296 12.492-.832 18.741-1.19 4.148-.236 8.36-.521 12.52-.488 1.692.014-3.312 2.96-3.63 3.16a74.971 74.971 0 0 1-9.309 5.004c-.138.063-3.116 1.328-2.868 1.447 1.136.545 3.215.154 4.421.172.773.011 2.115-.587 2.315.16.202.755-1.425.651-2.17.887-3.494 1.104-6.999 2.185-10.431 3.473-1.27.476-5.967 1.612-2.785 2.645 1.392.452 13.791 4.025 13.209 5.313-.492 1.091-5.119 2.232-2.629 3.35.893.4 2.085.623 2.881 1.195.153.11-.793 1.095-.908 1.294-.768 1.33 4.806-.1 5.3-.216 1.312-.308 2.38-.06 1.385-1.032-1.722-1.685 1.6-6.3 2.227-7.957.805-2.128.249-3.083.073-5.106-.164-1.88 5.95 1.607 6.155 1.708 3.429 1.691 7.74 2.849 10.122-1.084.338-.558 2.874-5.184 1.664-5.432"/>
    <path stroke="#E6F75F" stroke-linecap="round" stroke-width="8" d="M132.849 53.756c-8.265.679-15.854 1.975-23.844 4.165-4.189 1.148-10.872 2.446-12.763 7.109-.884 2.18-.65 6.105.35 8.22.475 1.007 1.277 1.892 2.192 2.52.342.233 1.997.652 1.712 1.182-4.085 7.598-3.182 16.737 3.435 22.503 3.107 2.708 6.978 4.954 9.588 8.181 1.27 1.57.585 2.501-.601 3.885-1.143 1.334-1.577 2.023.537 2.398 1.766.313 3.348-.249 2.609 1.701-.457 1.208-.965 2.805.081 3.862.505.508.762.58.476 1.249-2.307 5.396 5.205 2.497 7.652 2.998M17.182 107.065c2.77-2.058 5.599-3.614 8.822-4.888 5.302-2.096 10.742-4.625 16.215-6.216 5.828-1.694 11.334.215 16.87 2.028 2.728.893 1.836 4.176 4.35 5.56 1.408.775 2.992 1.06 4.426 1.762 2.147 1.05 2.995 2.9 4.61 4.554 1.47 1.508 3.387 3.561 5.472 4.218.392.123-.206 2.059-.277 2.457-.998 5.577-.766 11.247-1.326 16.859-.095.962-.212 1.987.161 2.905.342.842 1.596 3.26 2.494 3.444"/>
    <path stroke="#E6F75F" stroke-linecap="round" stroke-width="8" d="M23.629 109.784c5.877-2.209 11.976-3.692 18.109-5.011l.095-.021c2.374-.51 4.817-1.036 7.251-1.153.122-.006 1.996-.012 1.345.275-3.37 1.482-7.153 2.234-10.692 3.182-1.948.522-4.066.891-5.961 1.598-1.433.534 3.038.361 4.565.436.802.039 9.024-.537 7.741 1.685-.692 1.2-2.95 2.317-.346 2.07 7.213-.685 14.45-1 21.654-1.795 3.587-.396 7.143-.941 10.712-1.459 2.347-.34.11.181-.26.282-5.986 1.637-11.99 3.213-17.984 4.819-.031.008-9.511 1.881-5.255 2.061 1.322.056 5.806-.176 2.971 1.799-2.385 1.662-5.184 2.672-7.796 3.907-.197.092-.473.212-.773.343m0 0c-1.036.457-2.357 1.067-1.636 1.273.975.279 2.286.13 3.57-.093m-1.934-1.18c.181.107.363.219.548.335.453.283.918.563 1.385.845m-1.933-1.18c-.914-.54-1.789-.96-2.845-1.263m4.778 2.443c1.107-.192 2.195-.438 3.03-.51 4.242-.367 8.662-.707 12.912-.23 2.879.324-1.54 2.454-.702 2.783 1.452.571.637-.069 1.202 1.125.6 1.268 2.037 1.477.025 2.2-1.076.387-9.024 3.23-9.506 1.612-1.007-3.378-4.042-5.22-6.96-6.98Zm-38.29-49.124c8.26 1.443 16.77 2.589 25.174 2.589 4.03 0 7.55-1.987 10.764-4.267 2.873-2.039 1.776-3.73-.311-6.282-3.01-3.679-6.255-5.296-10.525-6.928l-.05-.02c-.95-.363-4.03-1.538-1.892-2.018 12.048-2.705 24.517-2.82 36.8-3.549 1.368-.08 7.066.62 6.93-1.966-.111-2.106-1.91-4.311-2.35-6.449-.424-2.06.563-5.298-1.486-6.593-4.545-2.87-9.829-4.144-14.91-5.677m0 0c-.498-.15-.995-.303-1.489-.46-3.608-1.148 1.106-2.743-.959-4.58-.466-.414-.97-.802-1.504-1.161m3.952 6.201c-.765.453-1.525.914-2.28 1.386-.664.415-2.205 1.022-2.613 1.798-.85 1.614.15 3.991-.791 5.802-.862 1.657-3.075 1.679-4.98 1.474m10.664-10.46a235.292 235.292 0 0 1 5.656-3.217c2.47-1.372.796-2.255-.384-4.148-1.159-1.86-1.398-3.324-1.014-4.767m-8.21 5.93c-2.426-1.632-5.46-2.653-8.278-2.697-3.958-.062-5.983 2.684-8.319 5.634-2.462 3.11-6.485 6.443-8.002 10.43m24.6-13.366c2.68-2.075 5.208-4.369 8.209-5.931m-8.21 5.93c-1.104.855-2.234 1.672-3.435 2.385-3.43 2.04-6.496 3.931-9.182 6.953-2.045 2.3 4.435 5.692 5.874 6.76.347.258.266.434.031.564m-17.887-3.295c-.381 1.003-.605 2.047-.605 3.14 0 1.63-6.555-1.055-7.216-1.343-.829-.361-3.513-1.674-3.38-2.997.082-.821 9.09.819 9.35.863.618.107 1.235.22 1.851.337Zm0 0c5.32 1.015 10.586 2.384 15.962 3.044.54.066 1.211.175 1.925.251m0 0c-.264.147-.723.237-.99.324-3.858 1.254-7.668 2.635-11.46 4.076-2.518.956-9.494 2.814-9.494 6.449 0 2.495-1.72 4.217-.84 6.857.743 2.225 1.328 2.8 3.43 3.5M65.05 21.566c.323-1.214 1.087-2.412 2.117-3.816.562-.766 1.391-1.04 1.918.144.484 1.09-3.285 3.282-4.028 3.668l-.007.004Zm5.856 4.527c9.377-3.04 19.95-4.028 28.914-8.103.555-.252-.894-.458-1.151-.527-3.886-1.044-7.97-1.782-11.94-2.398-3.8-.59-11.733-2.095-14.624 1.439-.575.702 3.105 1.71 3.548 1.822"/>
  </g>
  <defs>
    <clipPath id="a">
      <path fill="#fff" d="M0 0h152v152H0z"/>
    </clipPath>
  </defs>
</svg>
