<svg xmlns="http://www.w3.org/2000/svg" width="147" height="184" fill="none" viewBox="0 0 147 184">
  <path fill="#E6F75F" d="M66.707 49.462a5 5 0 0 0 9.944 1.057l-9.944-1.057ZM73.148 20.5l4.258 2.621-4.258-2.621ZM91.863 6.811l2.589 4.277-2.589-4.277Zm8.643-1.613.766-4.94-.766 4.94Zm.194 3.586-4.978-.475 4.978.475Zm-2.219 16.053 4.652 1.834-4.652-1.834Zm-9.563 13.217-3.46-3.61 3.46 3.61Zm-9.263 7.65 3.183 3.855-3.183-3.855Zm-6.974-1.16a5 5 0 0 0 3.602 9.33l-3.602-9.33ZM93.25 67.23a5 5 0 0 0 1.39-9.903l-1.39 9.903ZM58.247 56.01l.87-4.924-.87 4.924ZM47.06 52.525l-1.14 4.868.055.013.055.011 1.03-4.892ZM26.601 54.37l1.212 4.85.405-.1.382-.167-2-4.583Zm-10.266 8.494-3.913-3.113-.16.202-.14.217 4.213 2.694ZM5 98.39l-4.995-.234-.005.117v.117h5Zm4.9 30.329 4.834-1.276L9.9 128.72Zm6.04 18.042 4.352-2.46-4.353 2.46Zm8.303 11.203 3.535-3.536-3.535 3.536Zm7.513 9.094-3.536 3.536 3.536-3.536Zm3.763 2.768-2.736 4.185 2.736-4.185Zm4.335 2.431 1.682-4.709-1.682 4.709Zm10.617 4.554-1.062 4.886 1.062-4.886Zm16.475.806-1.632-4.726 1.632 4.726Zm13.971-5.741-1.245 4.843 1.245-4.843Zm6.063 2.168 2.042-4.565-2.042 4.565Zm15.42 1.977 1.063 4.885-1.063-4.885Zm6.986-2.768-3.536-3.536 3.536 3.536Zm8.659-7.936-3.536-3.536 3.536 3.536Zm7.816-9.887 4.361 2.447-4.361-2.447Zm8.04-19.755 4.726 1.633-4.726-1.633Zm2.768-6.956-4.56-2.052 4.56 2.052Zm2.387-9.373-4.941-.768 4.941.768Zm1.903-11.144 4.962.62-4.962-.62Zm.528-9.021-4.97-.552 4.97.552Zm-.088-11.408 4.938-.786-4.938.786ZM139.568 77.2l-4.743 1.58 4.743-1.58Zm-3.295-7.484 4.552-2.069-4.552 2.07Zm-5.272-7.44 4.089-2.877-4.089 2.878Zm-6.077-5.93-3.773 3.28 3.773-3.28Zm-5.536-3.822 2.867-4.096-2.867 4.096Zm-3.529-1.113 1.64-4.724-1.64 4.724Zm-4.628-.938.72-4.947-.72 4.947ZM86.848 52.92l1.822 4.656-1.822-4.656Zm-3.559 2.24 3.536 3.536-3.536-3.535Zm-1.318 1.055 3.635 3.433-3.635-3.433Zm4.473.79a5 5 0 1 0-10 0h10ZM7.711 79.994l4.771 1.496-4.77-1.496Zm28.836-28.581-.467-4.978.467 4.978ZM5.487 119.39a5 5 0 0 0 8.494 5.279l-8.493-5.279Zm21.61-24.4 4.36 2.449-4.36-2.449Zm12.15-26.054-4.582-2.002 4.582 2.002Zm3.11-7.634-4.794-1.422 4.793 1.422Zm-1.149 2.758-4.725-1.634 4.725 1.634Zm-13.823 44.13-4.781-1.464 4.78 1.464Zm-6.362 23.493 4.919.896-4.92-.896Zm1.483.936 4.025 2.966-4.025-2.966Zm16.31-25.365-4.211-2.695 4.212 2.695Zm12.58-22.607-4.547-2.08 4.547 2.08Zm6.219-14.578 4.952.687-4.952-.687Zm.765-6.452 4.997.167-4.997-.167ZM56.993 68l4.864 1.156L56.993 68Zm-21.047 73.73 4.852 1.209-4.852-1.209Zm-7.76 21.777a5 5 0 1 0 9.744 2.249l-9.744-2.249Zm3.722-9.672a5 5 0 0 0 9.38 3.468l-9.38-3.468Zm16.38-34.219 4.714 1.665-4.715-1.665ZM72.25 72.087l4.222 2.679-4.222-2.679Zm6.697-9.604-3.18 3.86 3.18-3.86Zm-1.579 10.54 4.876 1.11-4.876-1.11Zm-11.145 38.416 4.81 1.367-4.81-1.367Zm-8.705 35.708 4.85 1.217-4.85-1.217Zm-4.305 14.874-4.818-1.337 4.818 1.337Zm-.861 8.767-4.968.568 4.968-.568Zm1.34-2.61-4.703-1.7 4.702 1.7Zm18.032-43.244 4.519 2.14-4.519-2.14Zm18.68-43.464-4.74-1.594 4.74 1.594Zm4.544-12.313-4.595-1.97 4.595 1.97Zm3.061-7.487-4.628-1.892 4.628 1.892Zm1.674-5.294-4.958-.642 4.958.642Zm-2.655 14.997-4.866-1.146 4.866 1.146Zm-11.24 58.93-4.965-.594 4.965.594Zm-1.961 25.537-4.59-1.981 4.59 1.981Zm14.063-26.547 4.218 2.685-4.219-2.685Zm21.787-30.88-4.035-2.953 4.035 2.952Zm1.185-8.825-4.383-2.405 4.383 2.404Zm4.807-18.15 4.997.17-4.997-.17Zm-.263-4.31-4.782-1.459 4.782 1.46Zm-2.87 7.832-4.626-1.896 4.626 1.896Zm-19.528 57.362-4.802-1.394 4.802 1.394Zm-5.645 25.365-4.925-.863 4.925.863Zm-1.506 8.767 4.923.869-4.923-.869Zm.717-2.266-4.566-2.037 4.566 2.037Zm4.831-8.348 4.245 2.642-4.245-2.642Zm11.265-18.346 4.243 2.644-4.243-2.644Zm20.472-29.724-3.937-3.082 3.937 3.082Zm3.563-6.772-4.923-.869 4.923.869Zm-1.147 3.472-4.683-1.754 4.683 1.754Zm-17.268 42.948-4.906-.963 4.906.963Zm-.048 12.042-4.747-1.57 4.747 1.57Zm4.473-9.875-4.214-2.692 4.214 2.692Zm8.741-4.005a5.001 5.001 0 0 0-8.395-5.435l8.395 5.435ZM2.064 100.577a5 5 0 0 0 7.926 6.097l-7.926-6.097ZM27.56 79.789l3.277 3.776-3.277-3.776Zm4.962-5.05-3.536-3.536 3.536 3.536Zm.93-.532 4.916.914-4.916-.914ZM26.946 95.65a5 5 0 1 0 10 0h-10ZM76.65 50.519c.744-7.003-.554-12.857-1.042-16.885-.49-4.044-.384-6.972 1.797-10.514l-8.516-5.242c-3.864 6.278-3.828 11.84-3.208 16.958.621 5.135 1.61 9.116 1.025 14.626l9.944 1.057Zm.755-27.399c1.744-2.832 4.832-5.287 8.304-7.375 1.688-1.014 3.353-1.878 4.846-2.628 1.346-.677 2.906-1.43 3.896-2.029l-5.178-8.555c-.546.33-1.5.79-3.21 1.65-1.562.785-3.493 1.782-5.507 2.993-3.931 2.363-8.664 5.823-11.667 10.702l8.516 5.242Zm17.046-12.032a4.203 4.203 0 0 1-.619.308c-.046.018-.046.016.022-.005.134-.041.366-.104.7-.185a51.93 51.93 0 0 1 2.435-.52 49.1 49.1 0 0 1 2.481-.414c.348-.047.596-.073.747-.085.289-.02.005.027-.479-.048l1.533-9.882c-.755-.117-1.489-.064-1.783-.043-.432.032-.901.086-1.357.148-.92.124-1.99.306-3.015.501a61.767 61.767 0 0 0-2.93.627 23.49 23.49 0 0 0-1.24.333c-.188.057-.966.282-1.673.71l5.178 8.555Zm5.287-.95a4.895 4.895 0 0 1-3.18-1.913 4.588 4.588 0 0 1-.661-1.248 3.707 3.707 0 0 1-.156-.63c-.001-.011.005.038.01.163.005.117.008.262.008.43.001.744-.046 1.459-.038 1.37l9.955.949c.03-.308.084-1.355.083-2.334a15.716 15.716 0 0 0-.088-1.765 6.986 6.986 0 0 0-.311-1.416 5.422 5.422 0 0 0-.772-1.477c-.447-.603-1.503-1.729-3.317-2.01l-1.533 9.882ZM95.722 8.31c-.131 1.38-.22 2.814-.304 4.172a130.694 130.694 0 0 1-.29 4.015c-.249 2.645-.63 4.813-1.298 6.507l9.303 3.668c1.194-3.027 1.677-6.323 1.951-9.242.138-1.482.23-2.964.315-4.328.087-1.395.165-2.658.278-3.842l-9.955-.95ZM93.83 23.003c-1.699 4.308-4.418 7.651-8.371 11.441l6.92 7.22c4.416-4.234 8.295-8.758 10.754-14.993l-9.303-3.668Zm-8.371 11.441c-2.293 2.197-5.998 4.935-8.988 7.404l6.367 7.711c2.281-1.883 6.92-5.384 9.54-7.896l-6.92-7.219Zm-8.988 7.404c-1.705 1.408-2.92 2.36-3.79 2.697l3.602 9.328c2.718-1.05 5.3-3.277 6.555-4.314l-6.367-7.71Zm18.17 15.478c-5.625-.789-9.456-1.894-12.32-2.812-1.352-.433-2.832-.941-4.004-1.28-1.223-.353-2.68-.7-4.239-.7v10c.137 0 .516.034 1.465.308 1 .289 2.03.652 3.725 1.195 3.227 1.034 7.633 2.301 13.983 3.192l1.39-9.903Zm-20.563-4.793c-4.795 0-10.076-.585-14.962-1.447l-1.738 9.848c5.28.932 11.165 1.6 16.7 1.6v-10Zm-14.962-1.447c-1.439-.254-2.876-.762-4.735-1.457-1.73-.647-3.93-1.5-6.292-1.997l-2.06 9.785c1.476.311 2.92.857 4.849 1.578 1.8.674 4.038 1.505 6.5 1.939l1.738-9.848ZM25.388 49.52c-3.23.808-5.913 2.793-7.906 4.628-2.047 1.882-3.79 4.008-5.06 5.604l7.826 6.225c1.222-1.536 2.564-3.145 4.004-4.47 1.494-1.374 2.699-2.07 3.561-2.285l-2.425-9.702ZM0 98.391c0 11.958 2.17 20.636 5.065 31.605l9.67-2.552C11.86 116.553 10 108.955 10 98.391H0Zm5.065 31.605c1.369 5.185 3.377 13.663 6.522 19.226l8.705-4.92c-2.339-4.138-3.999-10.95-5.558-16.858l-9.669 2.552Zm6.522 19.226c2.411 4.267 5.478 8.636 9.12 12.278l7.071-7.071c-2.842-2.842-5.392-6.424-7.486-10.127l-8.705 4.92Zm9.12 12.278c1.115 1.115 2.08 2.391 3.285 4.004 1.14 1.524 2.52 3.383 4.228 5.091l7.071-7.071c-1.118-1.118-2.085-2.397-3.29-4.009-1.14-1.523-2.518-3.381-4.223-5.086l-7.07 7.071Zm7.513 9.095c1.626 1.626 3.497 2.72 4.563 3.417l5.472-8.37c-1.616-1.057-2.275-1.429-2.964-2.118l-7.071 7.071Zm4.563 3.417c1.125.736 3.175 2.164 5.39 2.955l3.363-9.418c-.83-.296-1.725-.89-3.28-1.907l-5.473 8.37Zm5.39 2.955c1.41.503 2.745 1.23 4.693 2.211 1.77.891 4.02 1.972 6.543 2.52l2.124-9.771c-1.18-.257-2.45-.815-4.17-1.681-1.54-.776-3.663-1.924-5.827-2.697l-3.364 9.418Zm11.236 4.731c1.797.391 4.971 1.301 8.047 1.301v-10c-1.658 0-3.115-.462-5.923-1.072l-2.124 9.771Zm8.047 1.301c.591 0 1.253.03 2.072.072.777.039 1.7.089 2.628.105 1.8.03 4.152-.048 6.423-.832l-3.265-9.452c-.572.197-1.493.31-2.99.285-.721-.012-1.453-.051-2.288-.093a50.536 50.536 0 0 0-2.58-.085v10Zm11.123-.655c4.465-1.543 9.094-4.545 12.33-7.781l-7.072-7.071c-2.235 2.236-5.584 4.384-8.523 5.4l3.265 9.452Zm12.33-7.781a4.401 4.401 0 0 1-2.08 1.169 3.853 3.853 0 0 1-1.281.093 2.417 2.417 0 0 1-.402-.071c-.03-.008-.011-.005.07.027.211.081.39.164.828.353.183.079.418.179.666.274.24.092.577.213.962.312l2.49-9.685c.181.046.216.078-.15-.081-.221-.095-.744-.329-1.212-.509-.442-.17-1.272-.469-2.233-.567-.902-.093-3.008-.107-4.73 1.614l7.072 7.071Zm-1.237 2.157c1.702.437 3.53 1.112 5.266 1.889l4.084-9.129c-2.113-.945-4.483-1.834-6.86-2.445l-2.49 9.685Zm5.266 1.889c5.271 2.358 12.377 3.635 18.525 2.298l-2.125-9.771c-3.606.784-8.519.043-12.316-1.656l-4.084 9.129Zm18.525 2.298c1.749-.38 6.263-.922 9.458-4.118l-7.071-7.071c-.206.207-.539.433-1.275.671-.887.286-1.7.413-3.237.747l2.125 9.771Zm9.458-4.118c1.064-1.063 2.508-2.344 4.114-3.765 1.532-1.356 3.228-2.854 4.545-4.171l-7.071-7.071c-1.054 1.055-2.493 2.33-4.101 3.753-1.533 1.356-3.233 2.858-4.558 4.183l7.071 7.071Zm8.659-7.936c3.557-3.556 5.868-6.032 8.642-10.975l-8.722-4.893c-2.123 3.785-3.704 5.511-6.991 8.797l7.071 7.071Zm8.642-10.975c3.758-6.699 6.144-14.026 8.405-20.569l-9.452-3.266c-2.367 6.853-4.453 13.199-7.675 18.942l8.722 4.893Zm8.405-20.569a79.851 79.851 0 0 1 2.601-6.537l-9.119-4.104a89.733 89.733 0 0 0-2.934 7.375l9.452 3.266Zm2.601-6.537c1.709-3.797 2.253-7.342 2.768-10.656l-9.881-1.537c-.53 3.405-.923 5.683-2.006 8.089l9.119 4.104Zm2.768-10.656c.277-1.777.615-3.518.969-5.418.346-1.859.701-3.834.956-5.875l-9.923-1.24c-.215 1.723-.522 3.447-.864 5.283-.335 1.796-.713 3.745-1.019 5.713l9.881 1.537Zm1.925-11.293c.22-1.761.272-3.497.315-4.981.045-1.561.081-2.855.22-4.108l-9.939-1.104c-.193 1.738-.235 3.465-.277 4.922-.044 1.533-.09 2.812-.242 4.031l9.923 1.24Zm.535-9.089c.423-3.808.529-8.668-.119-12.746l-9.876 1.572c.464 2.915.417 6.821.056 10.07l9.939 1.104Zm-.119-12.746c-.286-1.794-.389-3.107-.678-5.216-.258-1.884-.623-3.98-1.347-6.153l-9.487 3.163c.438 1.316.703 2.713.927 4.347.193 1.41.424 3.64.709 5.43l9.876-1.57Zm-2.025-11.368c-.983-2.95-2.55-5.91-3.487-7.972l-9.104 4.138c1.328 2.92 2.339 4.702 3.104 6.996l9.487-3.162Zm-3.487-7.972c-.882-1.94-2.06-3.556-3.074-4.85-1.143-1.46-1.882-2.29-2.661-3.398l-8.178 5.755c.96 1.364 2.225 2.862 2.967 3.81.871 1.112 1.46 1.98 1.842 2.821l9.104-4.138ZM135.09 59.4c-1.244-1.767-2.719-3.056-3.824-3.995-1.227-1.042-1.943-1.618-2.569-2.339l-7.546 6.562c1.253 1.441 2.725 2.621 3.641 3.4 1.039.882 1.662 1.477 2.12 2.127l8.178-5.755Zm-6.393-6.334c-1.306-1.502-2.759-2.456-3.888-3.125-1.344-.798-1.82-.999-2.554-1.513l-5.734 8.193c1.117.782 2.62 1.584 3.186 1.92.781.464 1.171.773 1.444 1.087l7.546-6.562Zm-6.442-4.638c-1.327-.929-2.729-1.277-3.453-1.444a30.753 30.753 0 0 0-.551-.12c-.168-.037-.29-.062-.41-.09a6.786 6.786 0 0 1-.342-.086l-3.28 9.447a13.1 13.1 0 0 0 1.437.398c.187.042.375.081.517.112.154.032.271.058.378.082.51.118.308.13-.03-.106l5.734-8.193Zm-4.756-1.74c-2.029-.704-4.203-.966-5.548-1.162l-1.44 9.896c1.739.253 2.791.395 3.708.713l3.28-9.447Zm-5.548-1.162c-2.067-.3-4.138-.305-5.949-.258-1.999.052-3.396.148-4.993.148v10c1.707 0 3.784-.113 5.252-.151 1.656-.043 3.044-.018 4.25.157l1.44-9.895Zm-10.942-.11c-5.313 0-10.84.835-15.983 2.848l3.644 9.312c3.779-1.478 8.034-2.16 12.339-2.16v-10Zm-15.983 2.848c-1.733.678-3.705 1.794-5.272 3.361l7.071 7.071c.36-.36 1.053-.81 1.845-1.12l-3.644-9.312Zm-5.272 3.361c.162-.163.317-.256.011-.042-.201.14-.83.565-1.429 1.199l7.27 6.866c-.197.209-.373.313-.12.136.085-.059.297-.204.51-.367.23-.175.522-.413.829-.72l-7.071-7.072Zm-1.418 1.157a5.616 5.616 0 0 0-.664.862c-.103.163-.185.31-.235.402-.054.098-.102.19-.135.252l-.075.145c-.116.219.04-.112.319-.474.081-.105.344-.442.769-.79.17-.139 1.7-1.444 3.997-1.047 2.835.49 3.735 2.865 3.909 3.421.224.718.223 1.306.223 1.453h-10c0 .182.002.796.232 1.53.18.574 1.087 2.958 3.932 3.45 2.307.399 3.85-.912 4.035-1.063.44-.36.72-.715.82-.844.23-.3.388-.573.436-.656.071-.124.132-.238.169-.308.114-.215.1-.194.137-.261.125-.228-.118.285-.599.794l-7.27-6.866ZM5 98.392l4.994.234v-.002l.002-.019a30.73 30.73 0 0 1 .023-.43 123.465 123.465 0 0 1 .492-5.843c.4-3.676 1.039-7.87 1.971-10.843L2.94 78.497C1.7 82.453.982 87.46.57 91.25a133.64 133.64 0 0 0-.534 6.346 70.716 70.716 0 0 0-.028.515l-.002.031v.013c0 .001 0 .002 4.994.236Zm7.482-16.903c.962-3.066 2.909-6.982 4.756-10.32a123.829 123.829 0 0 1 3.061-5.217 59.285 59.285 0 0 1 .237-.377l.01-.016.002-.003-4.213-2.692-4.213-2.693v.001l-.003.003-.005.008-.017.027-.061.097-.223.354a133.691 133.691 0 0 0-3.325 5.666c-1.904 3.441-4.268 8.09-5.548 12.17l9.542 2.992Zm14.119-27.12a2893.703 2893.703 0 0 1 1.998 4.584h-.001s-.001.001 0 0l.005-.002.035-.015a36.386 36.386 0 0 1 .812-.335 53.646 53.646 0 0 1 2.26-.848c1.916-.669 3.924-1.234 5.305-1.363l-.935-9.956c-2.654.249-5.62 1.163-7.667 1.878a63.637 63.637 0 0 0-3.715 1.433l-.065.028-.02.009a.22.22 0 0 1-.01.004c-.001 0-.002.001 1.998 4.584Zm10.414 2.02c1.406-.131 3.522.06 5.566.376a53.603 53.603 0 0 1 3.297.619l.038.008.006.002h-.002l1.139-4.87 1.139-4.868h-.004l-.008-.003c-.005 0-.012-.003-.021-.005l-.07-.016a53.4 53.4 0 0 0-1.108-.236 63.52 63.52 0 0 0-2.88-.514c-2.183-.337-5.323-.702-8.027-.448l.935 9.956Zm-23.035 68.28c2.774-4.463 5.722-8.767 8.738-13.277 2.986-4.465 6.001-9.081 8.738-13.953l-8.719-4.897c-2.536 4.515-5.37 8.862-8.332 13.292-2.931 4.384-6.029 8.907-8.918 13.556l8.493 5.279Zm17.476-27.23c4.86-8.653 8.602-17.876 12.371-26.5l-9.163-4.005c-3.92 8.969-7.384 17.52-11.927 25.608l8.719 4.897Zm12.371-26.5c.432-.988.757-1.691 1.26-2.833l-9.154-4.028c-.356.81-.905 2.023-1.269 2.856l9.163 4.004Zm1.26-2.833c.713-1.621 1.505-3.506 2.062-5.382l-9.587-2.844c-.366 1.232-.939 2.63-1.628 4.198l9.152 4.028Zm2.062-5.382c.115-.39.221-.761.291-1.055.02-.08.046-.2.072-.338.012-.068.08-.422.088-.866.002-.122.027-.862-.274-1.733a5.005 5.005 0 0 0-8.978-1.016c-.237.376-.391.74-.405.772a12.49 12.49 0 0 0-.16.38c-.093.234-.198.51-.3.783-.408 1.09-.94 2.598-1.001 2.775l9.45 3.268.01-.024.022-.065a72.827 72.827 0 0 1 .303-.854c.182-.508.4-1.109.582-1.596.092-.247.166-.439.217-.566.145-.362.016.022-.255.453a4.912 4.912 0 0 1-1.225 1.325 4.992 4.992 0 0 1-6.145-.128 4.994 4.994 0 0 1-1.567-2.242c-.3-.867-.275-1.599-.273-1.71.008-.423.072-.743.076-.764.017-.092.03-.153.033-.161 0-.005-.033.13-.148.518l9.587 2.845Zm-10.667-.298c-.237.684-.472 1.369-.705 2.054l9.466 3.223c.228-.67.458-1.34.69-2.009l-9.451-3.268Zm-.705 2.054c-4.763 13.987-8.908 28.316-13.174 42.246l9.561 2.928c4.329-14.132 8.383-28.16 13.08-41.95l-9.467-3.224Zm-13.174 42.246c-2.325 7.588-4.98 15.712-6.5 24.061l9.838 1.792c1.388-7.625 3.812-15.053 6.223-22.925l-9.561-2.928Zm-6.5 24.061c-.298 1.634-.177 3.639-.177 4.097h10c0-1.652-.067-1.856.015-2.305l-9.838-1.792Zm-.177 4.097c0 .227-.042 2.222 1.688 3.755 2.188 1.939 4.645 1.122 5.229.882a5.076 5.076 0 0 0 1.77-1.223c.278-.294.493-.592.555-.676.195-.269.416-.601.589-.863.166-.251.4-.61.53-.81.184-.28.25-.374.243-.364l-8.05-5.932c-.28.379-.829 1.233-1.071 1.6a16 16 0 0 1-.33.489c-.059.081.057-.091.267-.313a4.937 4.937 0 0 1 1.692-1.156c.574-.236 3.024-1.054 5.208.882 1.725 1.528 1.68 3.515 1.68 3.729h-10Zm10.604.701c6.061-8.227 11.314-17.537 16.497-25.636l-8.423-5.39c-5.624 8.789-10.303 17.193-16.125 25.094l8.051 5.932Zm16.497-25.636c4.741-7.409 9.17-15.033 12.915-23.222l-9.093-4.16c-3.486 7.62-7.653 14.816-12.245 21.992l8.423 5.39Zm12.915-23.222c.697-1.523 1.556-3.085 2.576-5.044l-8.868-4.62c-.88 1.687-1.963 3.671-2.802 5.505l9.094 4.16Zm2.576-5.044c1.556-2.986 3.484-6.861 4.048-10.927l-9.905-1.374c-.297 2.141-1.41 4.605-3.011 7.68l8.868 4.62Zm4.048-10.927c.252-1.817.727-4.495.81-6.972l-9.994-.334c-.06 1.782-.388 3.529-.721 5.932l9.905 1.374Zm.81-6.972a7.16 7.16 0 0 0-.026-.957 5.403 5.403 0 0 0-.208-1.039c-.074-.242-.48-1.627-1.89-2.637a5.02 5.02 0 0 0-5.612-.16 5.121 5.121 0 0 0-1.492 1.447c-.336.492-.525.957-.58 1.092-.269.658-.519 1.579-.677 2.18a91.825 91.825 0 0 0-.696 2.842l-.053.227a1.014 1.014 0 0 0-.015.065l9.73 2.312c.038-.162.374-1.647.704-2.897.191-.727.285-.998.264-.945a4.448 4.448 0 0 1-.413.755c-.1.147-.556.823-1.426 1.374a4.98 4.98 0 0 1-5.557-.162c-1.395-1-1.786-2.36-1.849-2.564a4.598 4.598 0 0 1-.18-.884c-.027-.267-.017-.434-.018-.383l9.994.334Zm-11.249 3.06A358.993 358.993 0 0 1 49.26 78.06l9.65 2.624a369.178 369.178 0 0 0 2.947-11.529l-9.729-2.312ZM49.26 78.06c-2.815 10.35-6.011 20.593-9.193 30.984-3.172 10.356-6.32 20.833-8.972 31.477l9.703 2.417c2.582-10.362 5.661-20.617 8.83-30.966 3.158-10.312 6.415-20.745 9.282-31.288l-9.65-2.624Zm-18.165 62.46c-1.508 6.051-1.607 9.386-1.664 12.549-.05 2.782-.067 5.333-1.245 10.436l9.744 2.249c1.402-6.074 1.443-9.41 1.5-12.504.048-2.711.104-5.238 1.368-10.313l-9.703-2.417Zm10.192 16.781c2.908-7.864 4.495-13.089 6.033-18.254 1.524-5.121 2.988-10.14 5.682-17.768l-9.43-3.33c-2.786 7.89-4.313 13.127-5.836 18.244-1.51 5.072-3.028 10.065-5.828 17.64l9.38 3.468Zm11.715-36.022c5.77-16.34 14.115-31.769 23.471-46.514l-8.444-5.358c-9.585 15.108-18.346 31.24-24.456 48.542l9.429 3.33Zm23.471-46.514c.205-.323 1.742-2.763 3.279-5.078a79.175 79.175 0 0 1 2.046-2.969c.132-.177.24-.32.327-.429.091-.115.132-.161.13-.16a3.841 3.841 0 0 1-.477.417 4.683 4.683 0 0 1-1.397.704c-.763.238-2.775.605-4.612-.909l6.358-7.718c-1.864-1.536-3.913-1.172-4.724-.92a5.292 5.292 0 0 0-1.569.802 6.8 6.8 0 0 0-.983.903c-.378.417-.766.922-1.097 1.37-.694.94-1.538 2.18-2.334 3.378-1.607 2.42-3.205 4.959-3.39 5.251l8.443 5.358Zm-.704-8.424a4.571 4.571 0 0 1-1.477-2.177c-.118-.389-.138-.665-.142-.71-.007-.104.006-.024-.027.333-.062.67-.221 1.653-.445 2.803-.446 2.289-1.011 4.564-1.184 5.323l9.75 2.218c.113-.494.764-3.137 1.25-5.63.241-1.24.477-2.613.586-3.79.053-.565.096-1.282.043-1.993a6.752 6.752 0 0 0-.267-1.477 5.432 5.432 0 0 0-1.73-2.618l-6.357 7.718Zm-3.275 5.572c-2.939 12.916-7.292 24.83-11.08 38.159l9.62 2.733c3.501-12.322 8.22-25.526 11.21-38.674l-9.75-2.218Zm-11.08 38.159c-3.358 11.82-5.864 24.372-8.745 35.858l9.7 2.433c3.079-12.276 5.326-23.808 8.665-35.558l-9.62-2.733Zm-8.745 35.858c-1.26 5.023-2.757 9.289-4.273 14.753l9.636 2.674c1.236-4.455 3.104-10.078 4.337-14.994l-9.7-2.433Zm-4.273 14.753c-.97 3.494-1.449 6.837-1.01 10.672l9.935-1.136c-.253-2.213-.021-4.222.711-6.862l-9.636-2.674Zm-1.01 10.672c.028.254.1.756.317 1.334a5.105 5.105 0 0 0 2.396 2.728c2.006 1.057 3.888.46 4.824-.061a5.265 5.265 0 0 0 1.495-1.251c.647-.784 1.037-1.751 1.126-1.962.349-.823.736-1.951.85-2.267l-9.404-3.399c-.219.606-.445 1.273-.655 1.768a.613.613 0 0 1-.05.113c.007-.012.036-.069.087-.153a4.04 4.04 0 0 1 .335-.468 4.745 4.745 0 0 1 1.35-1.117c.89-.496 2.732-1.088 4.702-.051a4.895 4.895 0 0 1 2.304 2.6c.192.51.243.918.258 1.05l-9.936 1.136Zm11.008-1.479a487.019 487.019 0 0 1 17.85-42.803l-9.038-4.28a496.95 496.95 0 0 0-18.216 43.684l9.404 3.399Zm17.85-42.803c6.753-14.258 13.715-28.59 18.9-44.011l-9.48-3.187c-4.956 14.743-11.623 28.487-18.458 42.918l9.038 4.28Zm18.9-44.011c1.393-4.146 2.766-8.127 4.4-11.936l-9.191-3.94c-1.81 4.218-3.295 8.544-4.689 12.69l9.48 3.186Zm4.4-11.936c1.087-2.536 2.116-5.174 3.093-7.564l-9.256-3.785c-1.069 2.613-1.98 4.962-3.028 7.408l9.19 3.941Zm3.093-7.564c.501-1.225 1.077-3.414 1.389-4.57a129.027 129.027 0 0 1 .314-1.143c.022-.078.031-.105.029-.098a4.636 4.636 0 0 1-.41.863 4.977 4.977 0 0 1-.783.98c-.266.257-1.7 1.622-4.003 1.377-2.597-.277-3.707-2.251-3.972-2.802a4.955 4.955 0 0 1-.485-1.985c-.006-.21.004-.363.006-.402.007-.095.013-.13.003-.05l9.917 1.285c.019-.149.044-.357.058-.574a5.355 5.355 0 0 0-.04-1.147 5.047 5.047 0 0 0-.445-1.457c-.267-.557-1.381-2.535-3.982-2.812-2.307-.246-3.745 1.122-4.016 1.385a5.052 5.052 0 0 0-1.055 1.475c-.162.34-.264.653-.29.733-.147.444-.344 1.182-.502 1.77-.41 1.523-.79 2.901-.989 3.387l9.256 3.785Zm-7.912-7.83c-.635 4.9-1.455 9.786-2.563 14.494l9.733 2.292c1.208-5.128 2.082-10.364 2.747-15.501l-9.917-1.284Zm-2.563 14.494c-4.58 19.452-8.93 39.336-11.339 59.482l9.93 1.188c2.339-19.557 6.576-38.984 11.142-58.378l-9.733-2.292ZM80.823 129.71c-.923 7.723-2.044 16.163-2.044 24.456h10c0-7.557 1.021-15.306 1.974-23.268l-9.93-1.188Zm-2.044 24.456c0 .213.002.687.01 1.11a19 19 0 0 0 .02.658c.004.067.015.301.051.561.01.076.031.214.067.382.021.099.11.519.332 1.015.1.223.38.812.947 1.407.593.621 2.017 1.736 4.125 1.521a5.002 5.002 0 0 0 4.086-2.998l-9.18-3.962a5 5 0 0 1 4.079-2.989c2.106-.215 3.528.9 4.12 1.52.567.593.845 1.18.944 1.401.22.491.307.903.326.992.033.158.052.283.06.345.028.2.032.339.03.284a58.947 58.947 0 0 1-.017-1.247h-10Zm9.638 3.656a182.959 182.959 0 0 1 13.691-25.843l-8.437-5.37a193.015 193.015 0 0 0-14.435 27.251l9.181 3.962Zm13.691-25.843c3.301-5.187 6.808-10.254 10.425-15.3l-8.129-5.825c-3.675 5.128-7.296 10.357-10.733 15.755l8.437 5.37Zm10.425-15.3c3.672-5.125 7.411-10.163 11.179-15.313l-8.07-5.905c-3.715 5.077-7.527 10.216-11.238 15.393l8.129 5.825Zm11.179-15.313c.712-.973 1.307-1.874 1.747-2.71.392-.745.922-1.913.979-3.306a5.679 5.679 0 0 0-1.974-4.583 6.281 6.281 0 0 0-1.306-.86c-.282-.14-.564-.253-.621-.277-.315-.131.169.03.66.441a3.965 3.965 0 0 1 1.37 2.43c.109.74-.07 1.144.001.926.057-.178.233-.623.678-1.433l-8.767-4.81c-.611 1.113-1.103 2.167-1.427 3.167-.309.959-.581 2.219-.379 3.598a6.037 6.037 0 0 0 2.109 3.794c.858.717 1.794 1.07 1.917 1.121.463.193-.178-.018-.758-.518a4.332 4.332 0 0 1-1.495-3.403c.034-.837.326-1.251.163-.943-.115.219-.391.673-.967 1.46l8.07 5.906Zm1.534-9.372c3.519-6.414 5.177-13.247 5.42-20.384l-9.994-.341c-.196 5.761-1.514 11.03-4.193 15.915l8.767 4.81Zm5.42-20.384c.065-1.884.027-3.856.027-5.49h-10c0 1.91.036 3.491-.021 5.149l9.994.34Zm.027-5.49a5.046 5.046 0 0 0-.205-1.464c-.053-.184-.36-1.31-1.409-2.279a5.003 5.003 0 0 0-5.86-.68c-1.099.621-1.642 1.487-1.744 1.645-.33.511-.491.976-.512 1.033-.144.398-.24.837-.246.864-.115.498-.108.482-.093.431l9.564 2.92c.118-.386.268-1.082.271-1.093.053-.228.01 0-.097.294-.011.031-.164.476-.486.975-.098.153-.638 1.015-1.733 1.634a4.997 4.997 0 0 1-5.852-.68c-1.046-.966-1.351-2.087-1.402-2.264a4.884 4.884 0 0 1-.163-.8c-.033-.276-.033-.487-.033-.536h10Zm-10.069-.45c-.746 2.443-1.682 4.876-2.714 7.395l9.253 3.791c1.073-2.62 2.146-5.385 3.025-8.267l-9.564-2.919Zm-2.714 7.395c-7.012 17.114-10.295 26.323-14.225 39.247l9.567 2.909c3.822-12.568 6.993-21.48 13.911-38.365l-9.253-3.79Zm-14.225 39.247c-1.616 5.314-3.342 11.258-5.48 18.617l9.604 2.788c2.142-7.377 3.849-13.254 5.443-18.496l-9.567-2.909Zm-5.48 18.617c-2.493 8.589-4.255 17.263-5.767 25.896l9.85 1.725c1.485-8.475 3.173-16.745 5.521-24.833l-9.603-2.788Zm-5.767 25.896c-.545 3.114-.969 5.723-1.505 8.76l9.847 1.739c.495-2.803 1.031-6.046 1.508-8.774l-9.85-1.725Zm-1.505 8.76a5.517 5.517 0 0 0-.098.967c-.001.09-.009.524.101 1.063.048.232.198.915.667 1.661.519.823 1.835 2.276 4.102 2.336a5.004 5.004 0 0 0 4.813-3.24c.077-.2.129-.378.138-.41.059-.196.154-.553.211-.762.201-.738.307-1.049.273-.973l-9.132-4.075c-.356.798-.678 2.01-.79 2.419l-.057.212-.047.174-.04.145.02-.064a4.305 4.305 0 0 1 .192-.495 4.977 4.977 0 0 1 1.238-1.675 5 5 0 0 1 3.442-1.253c2.267.059 3.583 1.512 4.101 2.334.469.746.619 1.428.666 1.659.11.536.102.967.101 1.051a5.161 5.161 0 0 1-.044.599l-.01.066-9.847-1.739Zm10.207.642c1.132-2.536 2.669-4.786 4.51-7.744l-8.49-5.284c-1.543 2.48-3.655 5.599-5.152 8.953l9.132 4.075Zm4.51-7.744c1.91-3.069 3.79-6.153 5.656-9.213a1088.83 1088.83 0 0 1 5.607-9.131l-8.487-5.288a1129.971 1129.971 0 0 0-5.659 9.213c-1.87 3.068-3.725 6.112-5.607 9.135l8.49 5.284Zm11.263-18.344c6.366-10.218 12.865-19.959 20.166-29.286l-7.874-6.164c-7.604 9.714-14.313 19.783-20.779 30.162l8.487 5.288Zm20.166-29.286c.997-1.274 2.229-2.935 3.172-4.859l-8.979-4.401c-.468.954-1.168 1.947-2.067 3.096l7.874 6.164Zm3.172-4.859c.593-1.209 1.107-2.591 1.378-4.126l-9.847-1.738c-.073.413-.232.894-.51 1.463l8.979 4.401Zm1.378-4.126a5.73 5.73 0 0 0 .098-.817 5.04 5.04 0 0 0-.35-2.144 5.012 5.012 0 0 0-2.269-2.551c-1.803-.976-3.556-.586-4.547-.11a5.004 5.004 0 0 0-1.548 1.156c-.411.454-.642.883-.694.978a5.852 5.852 0 0 0-.195.393c-.191.428-.369.995-.446 1.239-.23.727-.529 1.746-.712 2.367l9.591 2.828c.196-.665.462-1.567.655-2.177.134-.425.133-.381.042-.178a4.379 4.379 0 0 1-.16.323c-.042.077-.264.492-.667.938-.182.2-.693.742-1.538 1.148-.988.474-2.739.864-4.539-.11a4.994 4.994 0 0 1-2.577-3.757c-.054-.43-.037-.766-.033-.854.007-.137.019-.24.024-.287.012-.094.022-.146.018-.123l9.847 1.738Zm-10.663.511-.131.44-.03.1.005-.017.017-.05.048-.135 9.365 3.509c.1-.269.261-.828.317-1.019l-9.591-2.828Zm-.091.338c-2.617 6.987-6.006 13.524-9.386 20.787-3.305 7.1-6.48 14.67-8.105 22.952l9.812 1.926c1.385-7.055 4.135-13.732 7.359-20.658 3.147-6.763 6.887-14.03 9.685-21.499l-9.365-3.508Zm-17.491 43.739c-1.156 5.887-1.027 11.78-1.027 16.97h10c0-5.557-.086-10.327.839-15.044l-9.812-1.926Zm-1.027 16.97c0 .127.002.343.021.581a5.327 5.327 0 0 0 .27 1.317c.082.236.307.845.816 1.485.531.668 1.822 1.886 3.906 1.892a5.007 5.007 0 0 0 3.536-1.45c.794-.785 1.111-1.653 1.125-1.687.167-.407.251-.77.267-.84.101-.421.207-1.064.273-1.462.087-.516.175-1.038.265-1.51.103-.542.161-.744.153-.721l-9.494-3.14c-.366 1.106-.656 2.943-.785 3.713-.102.603-.138.795-.136.79a4.212 4.212 0 0 1 .2-.611c.004-.011.313-.862 1.098-1.639a4.987 4.987 0 0 1 3.525-1.443c2.08.005 3.367 1.221 3.895 1.885a4.993 4.993 0 0 1 .983 2.12c.051.26.067.46.072.524.012.149.01.238.01.196h-10Zm10.632-2.395c1.071-3.237 2.31-6.203 3.939-8.753l-8.427-5.384c-2.256 3.531-3.805 7.365-5.006 10.997l9.494 3.14Zm3.939-8.753c.682-1.067 1.401-2.11 2.173-3.224.755-1.091 1.57-2.262 2.355-3.473l-8.395-5.435c-.682 1.054-1.4 2.087-2.18 3.213a111.742 111.742 0 0 0-2.38 3.535l8.427 5.384ZM9.99 106.674a163.306 163.306 0 0 1 13.84-15.773l-7.072-7.071a173.337 173.337 0 0 0-14.694 16.747l7.926 6.097Zm13.84-15.773c1.334-1.335 2.635-2.815 3.741-4.034 1.169-1.287 2.207-2.382 3.266-3.302l-6.555-7.552c-1.537 1.335-2.91 2.805-4.114 4.132-1.267 1.395-2.3 2.576-3.41 3.685l7.071 7.071Zm7.007-7.335c1.108-.963 2.064-1.95 2.897-2.838.882-.94 1.55-1.68 2.323-2.454l-7.07-7.071c-.923.922-1.825 1.915-2.544 2.681-.768.818-1.445 1.508-2.16 2.13l6.554 7.552Zm5.22-5.292c.448-.447.826-.997.87-1.058.199-.277.17-.234.111-.164a4.494 4.494 0 0 1-.806.723 4.86 4.86 0 0 1-1.972.804 4.953 4.953 0 0 1-4.236-1.292 4.899 4.899 0 0 1-1.419-2.515 4.542 4.542 0 0 1-.104-1.033c.006-.326.05-.52.036-.447l9.831 1.83c.05-.268.123-.713.132-1.216a5.44 5.44 0 0 0-.12-1.244 5.101 5.101 0 0 0-1.47-2.626 5.046 5.046 0 0 0-4.32-1.316 5.14 5.14 0 0 0-2.085.857c-.6.42-.994.89-1.096 1.01-.277.327-.561.735-.612.806-.206.287-.07.069.19-.19l7.07 7.071Zm-7.52-4.982c-1.402 7.533-1.591 15.142-1.591 22.359h10c0-7.12.199-13.955 1.422-20.53l-9.831-1.829Z"/>
  <path stroke="#E6F75F" stroke-linecap="round" stroke-width="6" d="M34.734 171c4.04-11.257 8.072-22.46 12.76-33.444 4.984-11.677 10.68-22.964 16.039-34.448.967-2.072 3.335-6.65 4.502-8.98m0 0c.688-1.372.959-1.964.283-.805-.122.209-.213.489-.283.805Zm0 0c-.22 1.006-.22 2.38-.293 3.025-.616 5.411-1.223 10.831-1.728 16.255-.836 8.963-.366 17.814-.2 26.787.132 7.049.421 14.091.421 21.136 0 2.367-1.016 5.884.51 2.102 9.06-22.448 19.306-44.409 30.327-65.86 2.979-5.798 5.372-11.848 8.639-17.446 1.865-3.195 3.944-7.514 4.336-11.45m0 0c.023-.225.04-.449.051-.67.016-.333.024-1.701 0-.561-.009.41-.026.82-.051 1.23Zm0 0c-.419 6.97-3.052 14.12-4.336 20.885-3.328 17.548-5.796 35.099-8.373 52.759-.87 5.954-2.71 11.747-4.386 17.492-.367 1.258-1.073 3.073-1.187 4.323m0 0a4.119 4.119 0 0 0-.01.138c-.044.797-1.136 4.01-.576 1.985l.586-2.123Zm0 0c1.374-4.966 2.754-9.754 4.997-14.482 2.894-6.102 6.45-11.936 9.836-17.749 2.705-4.646 5.688-8.952 8.772-13.313 4.682-6.619 8.383-14.111 13.292-20.528 2.055-2.687 10.032-14.646 11.072-17.937"/>
</svg>
