<svg xmlns="http://www.w3.org/2000/svg" width="176" height="242" fill="none" viewBox="0 0 176 242">
  <path fill="#345B48" d="M146.963 36.936c.807.184 1.614.37 2.582 0 2.742-.924 5.001-3.138 6.615-5.908 5.648-3.322 10.971-11.075 7.26-18.274-2.582-4.984-7.583-6.46-12.585-6.46-3.711-3.69-10.811-3.69-15.005-1.66-2.259 1.107-3.711 3.507-4.357 6.091-1.936-.184-3.71-.554-5.324-.738-7.421-1.108-14.844-2.585-22.104-.739-.484.184-.968.37-1.291.554-.323-.184-.645-.37-.968-.37-15.166-4.06-30.171-1.292-43.078 7.383-.807-1.661-1.936-3.138-3.711-4.245-.484-.37-.968-.554-1.614-.738-.484-4.984-3.227-9.599-7.906-11.26-3.873-1.476-7.26.37-11.294.37-3.55 0-6.131 1.477-9.035 3.877-11.94 9.967-7.583 26.395 2.904 34.148-1.614 1.846-3.227 3.876-4.518 6.09-.968 1.662-1.936 3.322-2.742 5.169-1.775.923-2.904 3.138-2.26 5.352-3.871 10.335-5.485 21.595-6.776 32.485-3.55 32.117 5.002 63.311 34.044 73.833 13.068 4.798 28.396 6.644 42.11 4.43 14.36-2.4 25.977-10.89 36.625-21.781 9.682-9.967 15.328-21.227 18.071-34.702 7.583.738 14.843-4.061 14.036-14.028-.323-4.43-.807-11.075-4.517-13.843-2.098-1.661-4.518-1.477-6.777-.554.807-14.213.807-28.61 1.13-42.823.322-.552.484-1.106.484-1.66h.001Zm-14.522-5.354c2.904 1.293 3.227 1.107 3.711 3.691l-.323-.37c-1.291-.737-2.582-1.66-3.711-2.4-.161-.553-.484-1.106-.645-1.476.162.185.646.37.968.555Zm-13.39 4.245c-.161 1.107-.161 2.4.484 3.322-4.196-3.506-7.907-8.12-11.133-12.366 3.226 3.322 6.937 6.276 10.649 9.044Zm-32.43-13.29c-.968.738-2.098 1.293-3.066 2.03-.645-.737-1.614-1.107-2.743-1.107h-.323c1.937-.368 4.035-.737 6.131-.923ZM42.412 38.781c4.034-2.954 8.39-5.538 12.908-7.568.645-.184 1.291-.37 1.936-.924 3.066-1.292 6.292-2.584 9.358-3.507-3.066 1.477-6.132 3.322-9.358 5.168-.807.37-1.614.924-2.259 1.293-4.678 2.03-9.358 4.245-13.875 6.645.322-.368.806-.738 1.29-1.107Zm-9.52 16.428c11.294-.185 22.266-2.4 32.753-7.015 4.678-2.03 9.197-4.614 13.392-7.568 3.226-2.215 6.13-4.799 9.034-7.199-6.13 5.722-12.423 11.076-19.037 15.505-6.616 4.245-13.715 6.46-21.298 7.014-3.55.184-10.165.738-15.167-.738h.323Zm-5.97-34.702c.646 1.846 1.453 3.508 2.583 4.984 0 .184-.161.184-.161.37-.161.37-.161.738-.323 1.107-1.13-2.03-2.098-4.245-2.098-6.461Zm109.069 68.85c-1.291 21.041-5.646 36.362-20.006 50.205-13.391 12.921-27.428 18.274-45.015 16.982-15.49-1.108-33.56-5.169-43.078-20.489-4.518-7.382-6.777-15.874-7.584-24.733 1.291.923 2.582 1.661 3.873 2.03 5.647 1.293 8.067-8.675 2.42-9.967-2.582-.553-3.39-3.691-3.711-6.645-.161-1.66.16-2.214 1.29-3.321.162-.184 2.099-1.847 2.26-1.477 3.065 5.538 10.97.37 7.744-5.168-3.066-5.538-8.39-5.908-12.908-3.508 0-.553.161-1.107.161-1.477.968-6.46 2.259-12.736 4.195-18.642 10.649 6.091 27.267 3.691 37.109.184 14.036-5.168 27.428-17.535 38.722-29.534 8.551 10.706 18.554 22.15 31.462 22.52 1.614 0 3.227-1.108 4.034-2.954a668.338 668.338 0 0 1-.968 35.993Zm10.649 2.953c.161-.184.323-.184.323-.37.161.554.323 1.293.323 1.847.161 1.107.645 3.321.323 4.43-.484 1.293-2.098 1.477-3.549 1.293 0-.185 0-.554.16-.738l.484-5.538c.645-.003 1.291-.37 1.936-.924Z"/>
  <path fill="#345B48" d="M95.496 73.676c-1.936 4.43-3.389 9.044-3.873 14.028-.323 2.584-.16 4.984-.484 7.568-.16 2.03-1.13 4.245-.644 6.091-1.775-6.276-10.487-3.692-8.713 2.768 2.098 7.199 10.81 8.306 15.167 2.768 2.42-3.138 2.904-7.752 3.227-11.629.323-5.907.645-11.075 3.066-16.427 2.58-5.905-5.164-11.073-7.746-5.168Zm36.784 5.16c-7.26-4.061-15.167-3.877-22.266.553-5.001 3.322-.484 12.183 4.518 8.86 1.13-.738 2.419-1.293 3.71-1.66-.644 2.953.807 6.46 4.195 6.46 3.227 0 4.678-3.138 4.357-5.907.323.184.644.184.968.37 5.164 3.137 9.682-5.722 4.518-8.676Zm-57.116.001c-8.39-5.168-18.877-3.322-25.332 4.614-4.033 4.8 2.42 12.183 6.453 7.383.968-1.293 2.26-2.214 3.39-2.954-.162 2.585 1.29 5.353 4.356 5.353 3.389 0 4.84-3.508 4.194-6.461.807.184 1.614.553 2.42 1.107 5.003 2.956 9.52-5.905 4.519-9.043v.001Zm-27.269 21.224c-1.13 0-1.13 2.031 0 2.031s1.13-2.031 0-2.031Zm9.042 1.297v.37a.89.89 0 0 0 1.775 0v-.37a.89.89 0 0 0-1.775 0Zm-4.519 3.501c-1.13 0-1.13 2.031 0 2.031 1.129 0 1.129-2.031 0-2.031Zm79.054-7.936c-1.13 0-1.13 2.03 0 2.03 1.13-.001 1.13-2.03 0-2.03Zm-3.871.93-.323-.37c-.807-.923-2.098.554-1.291 1.477l.323.37c.807.923 2.097-.37 1.291-1.477Zm2.416 3.501c-1.13 0-1.13 2.03 0 2.03 1.13.184 1.13-2.03 0-2.03Zm-82.768 3.88c-1.13 0-1.13 2.03 0 2.03 1.29 0 1.29-2.03 0-2.03Zm-7.735-5.544c-1.13 0-1.13 2.031 0 2.031s1.13-2.03 0-2.03Z"/>
  <path fill="#345B48" fill-rule="evenodd" d="M83.51 130.598c-2.665.461-6.1.002-9.708-2.828-2.066-1.62-3.188-4.369-3.777-6.152a27.29 27.29 0 0 1-.905-3.556l-.011-.068-.004-.021-.001-.008-.001-.004 2.839-.463-2.84.462a2.877 2.877 0 0 1 5.678-.926v.001-.003.003l.006.032.027.152a21.536 21.536 0 0 0 .674 2.596c.56 1.697 1.257 2.953 1.865 3.429 2.315 1.816 4.101 1.872 5.178 1.686a4.807 4.807 0 0 0 1.373-.456 3.532 3.532 0 0 0 .36-.213 2.876 2.876 0 0 1 3.554 4.523l-1.796-2.247c1.796 2.247 1.795 2.248 1.793 2.249l-.003.002-.006.005-.014.011-.033.026a6.255 6.255 0 0 1-.352.249 9.08 9.08 0 0 1-.866.507c-.72.371-1.75.791-3.03 1.012Zm-24.12 89.549a2.882 2.882 0 0 1 3.131 2.609c.286 3.148 1.326 6.124 2.681 9.393.114.274.29.621.545 1.102l.17.315c.203.38.439.819.655 1.251.518 1.037 1.24 2.624 1.24 4.302a2.881 2.881 0 0 1-5.763 0c0-.201-.128-.716-.633-1.727a37.424 37.424 0 0 0-.55-1.047l-.205-.384a18.989 18.989 0 0 1-.783-1.605c-1.404-3.387-2.728-7.026-3.096-11.078a2.882 2.882 0 0 1 2.608-3.131Z" clip-rule="evenodd"/>
  <path fill="#345B48" fill-rule="evenodd" d="M63.768 222.529c-1.272.17-2.178.562-2.717 1.046a2.881 2.881 0 1 1-3.855-4.284c1.704-1.533 3.87-2.216 5.811-2.474 1.968-.262 3.97-.128 5.642.207 3.144.629 4.82 2.712 6.007 4.188.1.126.198.246.292.361.668.817 1.246 1.825 1.376 3.019.139 1.279-.277 2.363-.86 3.18-.535.749-1.224 1.297-1.776 1.684a24.027 24.027 0 0 1-1.69 1.058c-.513.302-1 .623-1.551.986l-.48.314c-.718.469-1.54.991-2.427 1.435a2.881 2.881 0 1 1-2.578-5.154c.572-.286 1.16-.653 1.853-1.106l.402-.264a44.544 44.544 0 0 1 1.851-1.174c.463-.274.824-.487 1.126-.687-1.28-1.556-1.712-1.996-2.675-2.189-1.146-.229-2.503-.312-3.75-.146Zm6.883 2.926-.001-.004.001.004Zm11.267-8.477a2.881 2.881 0 0 1 3.834 1.38c1.351 2.872 3.223 5.744 5.264 8.342a25.93 25.93 0 0 1 1.797-2.453c.375-.447 1.654-1.68 2.794-2.604.546-.443 1.303-1.019 2.038-1.363a4.33 4.33 0 0 1 .805-.289 3.36 3.36 0 0 1 1.462-.035 3.077 3.077 0 0 1 1.973 1.344c.439.68.507 1.36.507 1.761 0 2.232.126 4.474.259 6.811l.002.04c.131 2.297.267 4.688.267 7.095a2.882 2.882 0 0 1-5.763 0c0-2.23-.127-4.471-.26-6.808l-.002-.037c-.031-.554-.063-1.113-.093-1.677-.633.827-1.228 1.759-1.833 2.764.004-.005.005-.009.005-.009s-.021.041-.077.163l-.046.101a23.16 23.16 0 0 1-.21.453 7.045 7.045 0 0 1-.456.816c-.191.29-.499.697-.957 1.053a2.974 2.974 0 0 1-2.347.578 3.212 3.212 0 0 1-1.076-.404 4.53 4.53 0 0 1-.828-.652c-.353-.343-.708-.77-.986-1.117-.295-.369-.58-.748-.797-1.041l-.201-.272-.076-.103-.092-.124-.007-.009c-2.364-2.955-4.625-6.351-6.28-9.87a2.881 2.881 0 0 1 1.38-3.834Zm11.1 12.261-.016-.015.016.015Z" clip-rule="evenodd"/>
  <path fill="#345B48" fill-rule="evenodd" d="M81.297 216.177a2.881 2.881 0 0 1 2.881 2.881c0 3.447-.035 6.974-.411 10.565a178.66 178.66 0 0 1-.221 1.972c-.22 1.907-.423 3.656-.423 5.413a2.881 2.881 0 0 1-5.764 0c0-2.123.258-4.337.488-6.315.067-.579.132-1.139.188-1.67.342-3.266.38-6.53.38-9.965a2.881 2.881 0 0 1 2.882-2.881ZM68.8 187.613c1.066 1.01 1.053 2.551-.028 3.443-2.1 1.733-3.648 4.398-4.874 7.537-.989 2.532-1.696 5.166-2.36 7.637-.157.586-.312 1.164-.468 1.728-.355 1.29-1.84 2.022-3.316 1.635-1.476-.387-2.383-1.747-2.027-3.038.14-.509.285-1.048.435-1.609.665-2.48 1.447-5.399 2.53-8.174 1.327-3.396 3.215-6.893 6.221-9.373 1.082-.892 2.822-.796 3.887.214Z" clip-rule="evenodd"/>
  <path fill="#345B48" fill-rule="evenodd" d="M66.414 187.1c1.367-.517 3.01.072 3.67 1.316 2.639 4.98 4.215 11.533 4.051 17.207-.039 1.343-1.3 2.344-2.818 2.235-1.517-.109-2.716-1.286-2.677-2.629.142-4.918-1.257-10.693-3.508-14.939-.66-1.244-.085-2.672 1.282-3.19Z" clip-rule="evenodd"/>
  <path fill="#345B48" fill-rule="evenodd" d="M64.72 203.365c-1.188.205-2.6.449-3.943.491-1.512.048-2.849-1.005-2.986-2.351-.138-1.347.976-2.477 2.488-2.525.882-.028 1.804-.185 2.997-.389l.77-.131c1.454-.242 3.24-.505 5.107-.371 1.518.109 2.717 1.286 2.678 2.629-.039 1.343-1.3 2.343-2.818 2.234-1.075-.077-2.24.068-3.665.306-.201.033-.411.069-.629.107Zm11.688-13.505c1.147-2.127 3.499-3.828 6.422-3.731 2.067.07 3.699.864 4.764 1.577a9.907 9.907 0 0 1 1.617 1.35l.112.122.04.044.015.018.007.008.002.003.002.002c0 .001.001.001-2.191 1.871l2.192-1.87a2.882 2.882 0 0 1-4.365 3.763 4.17 4.17 0 0 0-.634-.52c-.481-.322-1.08-.585-1.753-.608-.462-.015-.912.251-1.158.707-.115.214-.135.387-.127.481.005.066.02.128.11.221 1.505 1.569 2.78 1.942 5.483 2.731.454.133.948.277 1.49.441 2.712.819 4.884 2.689 5.223 5.418.33 2.665-1.254 4.937-3.395 6.177-2.26 1.309-4.818 1.337-7.1.733s-4.49-1.879-6.377-3.518a2.881 2.881 0 1 1 3.778-4.351c1.36 1.181 2.804 1.961 4.073 2.297 1.268.336 2.159.187 2.739-.148.364-.211.494-.39.54-.483a.728.728 0 0 0-.044-.047c-.124-.123-.44-.361-1.103-.561-.42-.127-.845-.247-1.271-.369-2.727-.773-5.551-1.575-8.195-4.33-2.171-2.262-2.055-5.279-.896-7.428Zm11.544 12.786-.003-.006a.029.029 0 0 1 .003.006Zm-.016-.103c0-.012.002-.017.002-.017l-.002.017Zm-2.929-9.546-.002-.004 2.146-1.829a324.101 324.101 0 0 0-2.145 1.831m13.783-8.371c1.466.08 2.611 1.434 2.557 3.024l-.719 21.403c-.053 1.59-1.285 2.814-2.751 2.735-1.466-.08-2.611-1.435-2.558-3.025l.72-21.402c.053-1.591 1.285-2.815 2.75-2.735Z" clip-rule="evenodd"/>
  <path fill="#345B48" fill-rule="evenodd" d="M94.808 200.434c-.61-1.447-.137-3.083 1.058-3.654 2.523-1.205 4.974-1.515 7.3-1.585a67.852 67.852 0 0 1 2.851-.007l.544.006c1.112.012 2.187.011 3.274-.06 1.325-.087 2.566 1.102 2.769 2.656.204 1.553-.705 2.883-2.031 2.969-1.25.082-2.456.081-3.584.069a2134.7 2134.7 0 0 1-.577-.006 63.134 63.134 0 0 0-2.652.005c-2.037.062-3.865.326-5.684 1.195-1.194.57-2.657-.14-3.268-1.588Z" clip-rule="evenodd"/>
  <path fill="#345B48" fill-rule="evenodd" d="M108.497 187.626c1.46-.176 2.792.96 2.974 2.537.464 4.022.463 10.484-.226 18.571-.135 1.579-1.432 2.725-2.897 2.559-1.465-.165-2.544-1.579-2.41-3.158.673-7.9.641-13.899.245-17.334-.182-1.577.854-2.999 2.314-3.175Zm13.448 3.83c.876-.698 1.256-1.909.856-3.004a2.518 2.518 0 0 0-3.312-1.481c-.811.321-1.324.899-1.61 1.293a6.126 6.126 0 0 0-.681 1.244c-.32.763-.55 1.632-.719 2.378a39.848 39.848 0 0 0-.403 2.101l-.061.365-.058.351-.036.199c-.407 1.463-1.107 3.978-1.732 6.499-.612 2.468-1.22 5.202-1.335 6.926-.096 1.446.979 2.67 2.401 2.735 1.422.065 2.653-1.054 2.749-2.499.078-1.173.558-3.447 1.189-5.992.61-2.461 1.298-4.931 1.705-6.392l.002-.007c.064-.231.113-.516.139-.673l.002-.012a51.997 51.997 0 0 0 .123-.733c.092-.55.205-1.188.345-1.807.145-.641.294-1.153.433-1.485l.003-.006Z" clip-rule="evenodd"/>
  <path fill="#345B48" fill-rule="evenodd" d="M118.768 187.742c.929-1.119 2.558-1.282 3.639-.364 2.764 2.344 4.473 5.726 5.804 8.867.5 1.18.942 2.305 1.363 3.379.782 1.993 1.496 3.813 2.392 5.492.672 1.26.199 2.857-1.058 3.568-1.257.711-2.821.266-3.493-.994-1.032-1.933-1.943-4.248-2.797-6.418-.396-1.004-.779-1.977-1.156-2.866-1.287-3.038-2.616-5.451-4.417-6.978-1.081-.918-1.205-2.568-.277-3.686Z" clip-rule="evenodd"/>
  <path fill="#345B48" fill-rule="evenodd" d="M114.911 203.218a2.977 2.977 0 0 1 2.224-3.48c.55-.128 1.437-.219 2.249-.287.893-.075 1.954-.14 2.989-.184a49.656 49.656 0 0 1 2.916-.048c.416.008.837.027 1.206.067.181.02.407.05.638.104l.007.001c.145.033.661.152 1.165.512 1.276.915 1.556 2.723.625 4.039-.761 1.074-2.093 1.488-3.251 1.107a9.667 9.667 0 0 0-.635-.028 43.702 43.702 0 0 0-2.567.045c-.965.04-1.947.101-2.753.168-.404.034-.75.069-1.021.101-.265.032-.386.054-.408.057l-.003.001a2.79 2.79 0 0 1-3.381-2.175Zm-72.02-15.95a.127.127 0 0 1-.005.015l.005-.015Zm-5.435-.755v.006-.006Zm2.276 10.347c-1.393 4.469-2.426 8.781-2.426 13.464a2.881 2.881 0 0 1-5.763 0c0-7.416 2.287-14.171 4.445-20.543.446-1.316.886-2.616 1.3-3.902l.032-.105.058-.189.004-.011c.03-.093.117-.371.246-.636l.001-.004c.023-.05.282-.622.86-1.073a2.905 2.905 0 0 1 2.434-.544 2.909 2.909 0 0 1 1.848 1.346c.33.551.396 1.095.408 1.191l.001.01c.026.192.034.374.038.512.042 1.572.439 3.199.98 5.051.269.92.516 1.817.757 2.693l.064.233.031-.07c.777-1.748 1.52-3.421 2.185-5.172l.062-.174.07-.197c.06-.172.148-.414.243-.642.047-.114.112-.262.191-.416.058-.112.214-.41.476-.709a3.01 3.01 0 0 1 .889-.697 2.917 2.917 0 0 1 3.916 1.226c.181.338.26.642.295.801.434 1.953.42 4.025.337 5.833-.035.745-.078 1.421-.119 2.056-.067 1.051-.127 1.991-.127 2.941 0 .353-.002.694-.003 1.026-.008 2.13-.015 3.878.34 5.658a2.882 2.882 0 0 1-5.65 1.13c-.287-1.435-.398-2.866-.438-4.232-.1.164-.214.333-.344.498-.23.292-.8.956-1.765 1.25-1.285.393-2.45-.08-3.175-.771-.574-.548-.875-1.211-1.04-1.641-.635-1.65-1.172-3.453-1.66-5.191Zm7.057 3.163Z" clip-rule="evenodd"/>
</svg>
