<svg xmlns="http://www.w3.org/2000/svg" width="54" height="54" fill="none" viewBox="0 0 54 54">
  <path fill="#DADFE5" d="M27 0C12.113 0 0 12.113 0 27c0 14.888 12.113 27 27 27 14.888 0 27-12.112 27-27C54 12.113 41.888 0 27 0Zm19.852 29.232a371.356 371.356 0 0 1-3.873 2.712 130.101 130.101 0 0 0 6.024-8.346c.171 1.11.26 2.245.26 3.402 0 .524-.024 1.041-.06 1.556-.737-.086-1.541.1-2.351.676ZM4.737 27c0-1.5.151-2.965.435-4.383.539.137 1.154.085 1.788-.24a119.272 119.272 0 0 0 2.988-1.59c-1.964 2.736-3.696 5.604-5.078 8.633A22.54 22.54 0 0 1 4.737 27Zm13.043-3.486c3.748-4.918 7.966-9.475 12.528-14.044 1.393-1.394 1.404-3.08.657-4.373A22.114 22.114 0 0 1 38.92 8.21c-7.247 4.81-14.155 10.123-21.14 15.304ZM8.513 38.338c2.884-2.547 5.935-4.955 9.071-7.284-2.473 3.3-4.731 6.78-6.663 10.532-.093.18-.165.365-.225.552a22.38 22.38 0 0 1-2.64-3.46c.158-.1.311-.212.457-.34Zm18.238.973c-1.829 2.018-3.625 4.045-5.322 6.112a4.064 4.064 0 0 0-.915 2.873 22.112 22.112 0 0 1-4.146-1.74 933.735 933.735 0 0 0 10.383-7.245Zm19.626-23.256a3.126 3.126 0 0 0-.959.47c-5.465 3.984-10.926 7.97-16.416 11.92 4.613-5.454 9.717-10.522 14.905-15.399.086-.08.148-.169.221-.253a22.353 22.353 0 0 1 2.249 3.262ZM22.103 5.287c-4.406 2.302-8.78 4.905-12.652 8.04a22.291 22.291 0 0 1 12.652-8.04Zm7.94 43.764c5.19-3.122 10.345-6.29 15.41-9.605-3.466 5.123-9.01 8.726-15.41 9.605Z"/>
</svg>
